/* XPM */
static char * C:\Users\marga\OneDrive\Desktop\so_long_images\collect_xpm[] = {
"64 64 12 1",
" 	c #F5E3BE",
".	c #040001",
"+	c #050505",
"@	c #061D2A",
"#	c #FFE959",
"$	c #AC9920",
"%	c #C7B125",
"&	c #E5CC2D",
"*	c #F7BD01",
"=	c #BE7405",
"-	c #D88110",
";	c #E08B15",
" ..............................+ ..............................+",
"  ............................+   ............................+ ",
"   ..........................+     ..........................+  ",
"    ........................+       ........................+   ",
"     ......................+         ......................+    ",
"      ....................+           ....................+     ",
"       ..................+             ..................+      ",
"        ................+               ................+       ",
"         ..............+                 ..............+        ",
"          ............+                   ............+         ",
"           ..........+                     ..........+          ",
"            ........+                       ........+           ",
"             ......+                         ......+            ",
"              ....+                           ....+             ",
"               ..+                             ..+              ",
"                +                               +               ",
"                +                    @          +               ",
"               ..+                  @#@        ..+              ",
"              .....               @@###@      .....             ",
"             ......+             @######@    ......+            ",
"            ........+           @#####$$#@  ........+           ",
"           ..........+        @@#####$$%$#@@.........+          ",
"          ............+      @#######$%%%###@.........+         ",
"         ..............+    @#$$######%&#####@.........+        ",
"        ................+ @@#$$%$###########@@@.........+       ",
"       ..................@###$%%%#######@@@@**@..........+      ",
"      ..................@#####%&####@@@@**=***@...........+     ",
"     .................@@########@@@@*****=-;**@.............    ",
"    .................@######@@@@**********;***@.............+   ",
"   .................@###@@@@******************@..............+  ",
"  ................@@@@@@**********************@...............+ ",
" ................@@@***********===************@................+",
" ................@************=====***********@................+",
"  ...............@***********====--=******==**@...............+ ",
"   ..............@**=********===----*****==-=*@..............+  ",
"    .............@*=-;*******==----;*****=---*@.............+   ",
"     ............@**;*********=---;;******-;**@............+    ",
"      ...........@*******==****--;;***********@...........+     ",
"       ..........@******==-=****************@@@..........+      ",
"        .........@******=---***********@@@@@............+       ",
"         ........@*******;;;******@@@@@  ..............+        ",
"          .......@************@@@@        ............+         ",
"           ......@*******@@@@@             ..........+          ",
"            .....@**@@@@@                   ........+           ",
"             ....@@@                         ......+            ",
"              ....+                           ....+             ",
"               ..+                             ..+              ",
"                +                               +               ",
"                +                               +               ",
"               ..+                             ..+              ",
"              .....                           .....             ",
"             ......+                         ......+            ",
"            ........+                       ........+           ",
"           ..........+                     ..........+          ",
"          ............+                   ............+         ",
"         ..............+                 ..............+        ",
"        ................+               ................+       ",
"       ..................+             ..................+      ",
"      ....................+           ....................+     ",
"     .......................         .......................    ",
"    ........................+       ........................+   ",
"   ..........................+     ..........................+  ",
"  ............................+   ............................+ ",
" ..............................+ ..............................+"};
