/* XPM */
static char * C:\Users\marga\OneDrive\Desktop\so_long_images\enemy_xpm[] = {
"64 64 13 1",
" 	c #F5E3BE",
".	c #040001",
"+	c #050505",
"@	c #061D2A",
"#	c #555D63",
"$	c #858B90",
"%	c #FEC9B9",
"&	c #B4B78B",
"*	c #DEE4A9",
"=	c #FCFDFC",
"-	c #CACECF",
";	c #F4F4F6",
">	c #D9D8DB",
" ..............................+ ..............................+",
"  ............................+  @@@@.........................+ ",
"   ..........................+   @@#@@@@.....................+  ",
"    ........................+     @@###@@@..................+   ",
"     ....................@@@@@@@   @#####@@@...............+    ",
"      ..................@@@@@$$@@@@@@######@@.............+     ",
"       .................@%%%%@@@$$@@@##@@@@@@.@..........+      ",
"        ................@@%%%%%@@@$$$@@$$$$@@@$@........+       ",
"         ..............+ @@%%%%%%@@@$$$$$$@@$$$$@@.....+        ",
"          ............+   @%%%%%%%%@@$$$$$@$$$$$$@@...+         ",
"           ..........+    @%%%%%%%%%@$$$$$@$$$$$$$@..+          ",
"            ........+     @%%%%%%%%%@@$$$$$$$@@@@$$@+           ",
"             ......+      @@%%%%%%%%%@$$$$$$$$$$@@$@            ",
"              ....+        @%%%%%%%%@@$$$$$$$$$@@@@$@           ",
"               ..+         @@%%%%%%@@$$$$$$$$$$@&*@@$@      @@  ",
"                +           @%%%%%%@$$$$$$$$$$$@&**@@@    @@@   ",
"                +           @@%%%%%@$$$$$$$$$$$@@&*@@@   @@     ",
"               ..+           @@%%%@@$$$$$$$$$$$$@@*@@$@@@@      ",
"              .....           @@@@@$$$$$$$$$$$$$$@@@@@@@@@@@@@  ",
"             ......+            @@$$$$$$$$$$$@@@@@@@@@@@@       ",
"            ........+            @@$$$$$$$$$$$$$$$$@@@==@       ",
"           ..........+            @@$$$$$$$$$$$@@@@@===@        ",
"          ............+          @@@@$$$$$$$$@@===@@==@@@       ",
"         ..............+       @@@$$@$$$$$$$@@==@@@=====@       ",
"        ................+     @@$$$$$$$$$$$$@==@@======@@       ",
"       ..................+  @@$$$$$$$$$$$$$$@========@@@.+      ",
"      ....................@@$$$$$$$$$$$$$$$$@@=====@@@....+     ",
"@@@@ ....................@@$$$$$$$$$$$$$$@@@-@@@@@@@........    ",
"@;;@@...................@@$$$$$$$$$$$@@@@-------@...........+   ",
"@;;;@@..................@$$$$$$$$$@@@-----------@............+  ",
"@@;;;@@.................@$$$$$$$@@@-------------@.............+ ",
" @@;;;@@................@@$$$$$$@--------------@...............+",
" .@@;;;@@................@@$$$$$@--------------@...............+",
"  .@@;;;@.................@@$$$$@-------------@@..............+ ",
"   .@@;$@@................@@@$$$@-------------@;@@...........+  ",
"    .@$$$@...............@@$@@$$@@-----------@;;;;@.........+   ",
"     @$$$@...............@$$$@@$$@-----------@;;;;@........+    ",
"     @$$$@..............@@$@@@;@@@@---------@;;@@@........+     ",
"     @@$$$@............@@$@@;;;;;;@@-------@@;;;@........+      ",
"      @$$$@...........@@$@;;;;;;;;;@------@@@@;;;@......+       ",
"      @$$$@@.........@@$$$@@;;;;;;;@------@;@.@;;@.....+        ",
"      @@$$$@@......@@@$$$$$@;;;;;;;@-----@@;@..@@.....+         ",
"       @$$$$@@@..@@@$$$$$$$@;;;@;;;@-----@ @@........+          ",
"       @@$$$$$@@@@$$$$$$$$@;;;@@;;@@----@@  ........+           ",
"        @@$$$$$$$$$$$$$$$$$@@@@-@@@-----@    ......+            ",
"         @@@$$$$$$$$$$$$$$$$@-----------@     ....+             ",
"           @@$$$$$$$$$$$$$$@------------@      ..+              ",
"            @@@@$$$$$$$$$$@-------------@       +               ",
"               @@$$$$$$$$@@-------------@       +               ",
"               .@@$$$$$$$@-------------@@      ..+              ",
"              ...@@$$$$$$@@------------@      .....             ",
"             .....@$$$$$$$@------------@     ......+            ",
"            ......@@$$$$$$@@---------@@     ........+           ",
"           .........@$$$$$$@@-------@@     ..........+          ",
"          ..........@@$$$$$$@@@@@@@@@@@@  ............+         ",
"         ............@$$$$$$$@@>>>>>>>>>@@.............+        ",
"        .............@$$$$$$@@>>>>>>>>>>>@..............+       ",
"       ............@@@$$$$$$@>>>>>>>>>>>@@...............+      ",
"      ............@@>>@@@@@@@@@@@@@@@@@@@.................+     ",
"     ............@@>>>>>>>>@@        .......................    ",
"    .............@@>>>>>>>>>>@@     ........................+   ",
"   ...............@@>>>>>>>>>>>@   ..........................+  ",
"  .................@@@@@>>>>>>>@  ............................+ ",
" .......................@@@@@@@+ ..............................+"};
