/* XPM */
static char * C:\Users\marga\OneDrive\Desktop\so_long_images\exit_xpm[] = {
"64 64 13 1",
" 	c #F5E3BE",
".	c #040001",
"+	c #050505",
"@	c #9B6850",
"#	c #895741",
"$	c #3F301D",
"%	c #483314",
"&	c #7D4C3C",
"*	c #4F3C1F",
"=	c #543E1F",
"-	c #604724",
";	c #523F21",
">	c #7A5931",
" ..............................+ ..............................+",
"  ............................+   ............................+ ",
"   ..........................+     ..........................+  ",
"    ........................+       ........................+   ",
"     ......................+         ......................+    ",
"      ....................+           ....................+     ",
"       ..................+             ..................+      ",
"        ................+               ................+       ",
"         ..............+                 ..............+        ",
"          ............+                   ............+         ",
"           ..........+                     ..........+          ",
"            ........+                       ........+           ",
"             ......+                         ......+            ",
"              ....+                           ....+             ",
"               ..+                             ..+              ",
"                +                               +               ",
"                +                               +               ",
"               ..+                             ..+              ",
"              .....        @@@@@@@            .....             ",
"             ......+      @@####$$%%         ......+            ",
"            ........+    @@##&$$%%%%%       ........+           ",
"           ..........+  @@##&&$%%%%%%%     ..........+          ",
"          ............+@@##&&$%%%%%%%%%   ............+         ",
"         .............@@##&&$%%%%%%%%%%% ..............+        ",
"        ..............@##&&$%%%%%%%%%%%%%...............+       ",
"       ..............@@#&&$%%%%%%%%%%%%%%%...............+      ",
"      ...............@##&&$%%%%%%%%%%%%%%%................+     ",
"     ................@#&&&$%%%%%%%%%%%%%%%%.................    ",
"    ................@@#&&$%%%%%%%%%%%%%%%%%.................+   ",
"   .................@##&&$%%%%%%%%%%%%%%%%%..................+  ",
"  ..................@#&&&$%%%%%%%%%%%%%%%%%...................+ ",
" ...................@#&&$$%%%%%%%%%%%%%%%%%....................+",
" ...................@#&&$%%%%%%%%%%%%%%%%%%....................+",
"  ..................@#&&$%%%%%%%%%%%%%%%%%%...................+ ",
"   .................@#&&$%%%%%%%%%%%%%%%%%%..................+  ",
"    ................@#&&$%%%%%%%%%%%%%%%%%%.................+   ",
"     ...............@#&&$********%%%%%%%%%%................+    ",
"      ..............@#&&$************%%%%%%...............+     ",
"       .............@#&&$=======*******%%%%..............+      ",
"        ............@#&&$===========*****%%.............+       ",
"         ...........@#&&$------======;***%%............+        ",
"          ..........@#&&$----------====***%...........+         ",
"           .........@#&&$>>>>>>>>>----===*%..........+          ",
"            ........@#&&$>>>>>>>>>>>---==** ........+           ",
"             ......+                         ......+            ",
"              ....+                           ....+             ",
"               ..+                             ..+              ",
"                +                               +               ",
"                +                               +               ",
"               ..+                             ..+              ",
"              .....                           .....             ",
"             ......+                         ......+            ",
"            ........+                       ........+           ",
"           ..........+                     ..........+          ",
"          ............+                   ............+         ",
"         ..............+                 ..............+        ",
"        ................+               ................+       ",
"       ..................+             ..................+      ",
"      ....................+           ....................+     ",
"     .......................         .......................    ",
"    ........................+       ........................+   ",
"   ..........................+     ..........................+  ",
"  ............................+   ............................+ ",
" ..............................+ ..............................+"};
