/* XPM */
static char * C:\Users\marga\OneDrive\Desktop\so_long_images\player_xpm[] = {
"64 64 14 1",
" 	c #F5E3BE",
".	c #040001",
"+	c #050505",
"@	c #061D2A",
"#	c #C59F11",
"$	c #F0C90F",
"%	c #96790C",
"&	c #D28E27",
"*	c #AA7422",
"=	c #F9B6A6",
"-	c #F1F1F3",
";	c #683038",
">	c #B84A52",
",	c #FFD290",
" ..............................+ ..............................+",
"  ....................@@@.....+   ............................+ ",
"   .................@@###@@@.+     ..........................+  ",
"    ..............@@@#######@@@     ........................+   ",
"     .............@$@@@##%%####@@    ......................+    ",
"      ...........@$%#$@@@%#######@@   ....................+     ",
"       ..........@$##$$$@@@@###@@@@    ..................+      ",
"        .........@$$$$$$$$$@@@@##@      ................+       ",
"         .......@$$$$$$##$$$@####@       ..............+        ",
"          ......@$$$$$$%#$$@####@         ............+         ",
"           .....@$$#%$$$$$$@#%%#@          ..........+          ",
"            ....@$$##$$$$$@##%#@            ........+           ",
"             ..@$$$$$$$$$$@####@             ......+            ",
"              .@$$$$$$$$$$@###@               ....+             ",
"               @##$$$$$$$@####@                ..+              ",
"              @$%#$$$%#$$@#%#@                  +               ",
"              @@$$$$$##$@#%%#@                  +               ",
"               .@@@$$$$$@###@                  ..+              ",
"              .....@@@$@##@@@                 .....             ",
"             ......+  @@@@@                  ......+            ",
"            ........+  @&&@                 ........+           ",
"           ..........+ @&&@                ..........+          ",
"          ............+@&&@ @@@           ............+         ",
"         ..............@&&&@@**@         ..............+        ",
"        ...............@&&&@*@@@@@@     ................+       ",
"       ................@&&@@@&&&&&@@ @@@@@...............+      ",
"      .................@&@@&&&&&&&&@@@&&&@@...............+     ",
"     ..................@@@@@@@@&&&&&&&@@@=@@................    ",
"    .............@@....@@@-@@@-@&&&&&@@====@................+   ",
"   ...............@@@.@@@--@@--@&&&&&@=====@.................+  ",
"  ..................@@@@--@@---@&&&&&@=====@..................+ ",
" .....................@@@@@---@&&@@&&@=====@...................+",
" ...................@@@@@@@@@@@@@@&&@@====@....................+",
"  ...............@@@@.@ @@  @@@&&&&&@====@@...................+ ",
"   ...................@@   @@@@@@@&@@====@...................+  ",
"    ...................@@ @@;; @&&&@===@@...................+   ",
"     ...................@@ ;;>  @&&@=@@@...................+    ",
"      ..................@@ >>   @@@@@@....................+     ",
"       ..................@@    @@@&&&@@..................+      ",
"        ................+ @@@@@@&&&&&&@@@...............+       ",
"         ..............+  @&&&&&&&&&&&&&@@.............+        ",
"          ............+   @&&&&&&&&&&&&&&@@...........+         ",
"           ..........+    @@@@&&&&&&&&&&&&@@@........+          ",
"            ........+     @,,@@&&&@@@@@&&&&&@@......+           ",
"             ......+      @,,,@@&&@   @@@@&&&@@@...+            ",
"              ....+       @,,,,@@&@      @@&&&&@..+             ",
"               ..+        @,,,,,@@@@      @&&&&@.+              ",
"                +         @,,,,,,@@@@     @@@@@@+               ",
"                +      @@@@,,,,,,,@&@@    @@    +               ",
"               ..+     @&&@@,,,,,,@@&@         .@@@@@@          ",
"              .....    @&&&@,,,,,,,@&@@       @@@&&&&@          ",
"             ......+   @&&&@@,,,,,,@&&@@@@@@@@@&&&@@@@          ",
"            ........+@@@&&&&@,,,,,,@&&@&&&&&&&&&@@@.+           ",
"           ..........@,@@&&&@@,,,,,@&&&@@@@@@@@@@....+          ",
"          ...........@,,@@&&@@@,,,,@&&&&&@............+         ",
"         ............@@,,@@&@ @@,,@@&&&&&&@@@..........+        ",
"        ..............@@,,@@@  @@@@&&&&&&&&&&@..........+       ",
"       ................@@@,@       @@&&&&&&&&@...........+      ",
"      ...................@@@        @@@&&@&&&@............+     ",
"     .......................         ..@@@&&@@..............    ",
"    ........................+       .....@@@@...............+   ",
"   ..........................+     ..........................+  ",
"  ............................+   ............................+ ",
" ..............................+ ..............................+"};
