/* XPM */
static char * C:\Users\marga\OneDrive\Desktop\so_long_images\wall_xpm[] = {
"64 64 6 1",
" 	c #984124",
".	c #8C8B8A",
"+	c #7F351B",
"@	c #9F4223",
"#	c #712D16",
"$	c #5D2613",
"        .+++++++++++++++.@@@@@@@@@@@@@@@.###############.       ",
"        .+++++++++++++++.@@@@@@@@@@@@@@@.###############.       ",
"        .+++++++++++++++.@@@@@@@@@@@@@@@.###############.       ",
"        .+++++++++++++++.@@@@@@@@@@@@@@@.###############.       ",
"        .+++++++++++++++.@@@@@@@@@@@@@@@.###############.       ",
"        .+++++++++++++++.@@@@@@@@@@@@@@@.###############.       ",
"        .+++++++++++++++.@@@@@@@@@@@@@@@.###############.       ",
"................................................................",
".@@@@@@@@@@@@@@@.+++++++++++++++.###############.               ",
".@@@@@@@@@@@@@@@.+++++++++++++++.###############.               ",
".@@@@@@@@@@@@@@@.+++++++++++++++.###############.               ",
".@@@@@@@@@@@@@@@.+++++++++++++++.###############.               ",
".@@@@@@@@@@@@@@@.+++++++++++++++.###############.               ",
".@@@@@@@@@@@@@@@.+++++++++++++++.###############.               ",
".@@@@@@@@@@@@@@@.+++++++++++++++.###############.               ",
"................................................................",
"########.@@@@@@@@@@@@@@@.$$$$$$$$$$$$$$$.+++++++++++++++.#######",
"########.@@@@@@@@@@@@@@@.$$$$$$$$$$$$$$$.+++++++++++++++.#######",
"########.@@@@@@@@@@@@@@@.$$$$$$$$$$$$$$$.+++++++++++++++.#######",
"########.@@@@@@@@@@@@@@@.$$$$$$$$$$$$$$$.+++++++++++++++.#######",
"########.@@@@@@@@@@@@@@@.$$$$$$$$$$$$$$$.+++++++++++++++.#######",
"########.@@@@@@@@@@@@@@@.$$$$$$$$$$$$$$$.+++++++++++++++.#######",
"########.@@@@@@@@@@@@@@@.$$$$$$$$$$$$$$$.+++++++++++++++.#######",
"................................................................",
".###############.               .@@@@@@@@@@@@@@@.@@@@@@@@@@@@@@@",
".###############.               .@@@@@@@@@@@@@@@.@@@@@@@@@@@@@@@",
".###############.               .@@@@@@@@@@@@@@@.@@@@@@@@@@@@@@@",
".###############.               .@@@@@@@@@@@@@@@.@@@@@@@@@@@@@@@",
".###############.               .@@@@@@@@@@@@@@@.@@@@@@@@@@@@@@@",
".###############.               .@@@@@@@@@@@@@@@.@@@@@@@@@@@@@@@",
".###############.               .@@@@@@@@@@@@@@@.@@@@@@@@@@@@@@@",
"................................................................",
"$$$$$$$$.+++++++++++++++.               .###############.$$$$$$$",
"$$$$$$$$.+++++++++++++++.               .###############.$$$$$$$",
"$$$$$$$$.+++++++++++++++.               .###############.$$$$$$$",
"$$$$$$$$.+++++++++++++++.               .###############.$$$$$$$",
"$$$$$$$$.+++++++++++++++.               .###############.$$$$$$$",
"$$$$$$$$.+++++++++++++++.               .###############.$$$$$$$",
"$$$$$$$$.+++++++++++++++.               .###############.$$$$$$$",
"................................................................",
".@@@@@@@@@@@@@@@.+++++++++++++++.$$$$$$$$$$$$$$$.###############",
".@@@@@@@@@@@@@@@.+++++++++++++++.$$$$$$$$$$$$$$$.###############",
".@@@@@@@@@@@@@@@.+++++++++++++++.$$$$$$$$$$$$$$$.###############",
".@@@@@@@@@@@@@@@.+++++++++++++++.$$$$$$$$$$$$$$$.###############",
".@@@@@@@@@@@@@@@.+++++++++++++++.$$$$$$$$$$$$$$$.###############",
".@@@@@@@@@@@@@@@.+++++++++++++++.$$$$$$$$$$$$$$$.###############",
".@@@@@@@@@@@@@@@.+++++++++++++++.$$$$$$$$$$$$$$$.###############",
"................................................................",
"@@@@@@@@.+++++++++++++++.               .###############.@@@@@@@",
"@@@@@@@@.+++++++++++++++.               .###############.@@@@@@@",
"@@@@@@@@.+++++++++++++++.               .###############.@@@@@@@",
"@@@@@@@@.+++++++++++++++.               .###############.@@@@@@@",
"@@@@@@@@.+++++++++++++++.               .###############.@@@@@@@",
"@@@@@@@@.+++++++++++++++.               .###############.@@@@@@@",
"@@@@@@@@.+++++++++++++++.               .###############.@@@@@@@",
"................................................................",
".               .$$$$$$$$$$$$$$$.               .+++++++++++++++",
".               .$$$$$$$$$$$$$$$.               .+++++++++++++++",
".               .$$$$$$$$$$$$$$$.               .+++++++++++++++",
".               .$$$$$$$$$$$$$$$.               .+++++++++++++++",
".               .$$$$$$$$$$$$$$$.               .+++++++++++++++",
".               .$$$$$$$$$$$$$$$.               .+++++++++++++++",
".               .$$$$$$$$$$$$$$$.               .+++++++++++++++",
"................................................................"};
